<svg width="14" height="16" viewBox="0 0 14 16" fill="none" xmlns="http://www.w3.org/2000/svg">
<path d="M11.2379 15.3557C10.3701 16.1979 9.41254 16.0666 8.49984 15.6695C7.52951 15.2644 6.64243 15.2388 5.61765 15.6695C4.34148 16.2203 3.66416 16.0602 2.89558 15.3557C-1.44372 10.8883 -0.803236 4.08311 4.12852 3.82691C5.32463 3.89096 6.16206 4.48821 6.8666 4.53785C7.9138 4.32489 8.91616 3.71483 10.037 3.79489C11.3836 3.90377 12.3908 4.43538 13.0633 5.3913C10.2932 7.05657 10.9497 10.7073 13.494 11.7321C12.9849 13.0691 12.3316 14.3902 11.2363 15.3669L11.2379 15.3557ZM6.77053 3.77888C6.64083 1.79336 8.25005 0.160122 10.1011 0C10.3557 2.28974 8.01948 4.00305 6.77053 3.77888Z" fill="black"/>
</svg>
