<svg width="13" height="13" viewBox="0 0 13 13" fill="none" xmlns="http://www.w3.org/2000/svg">
<path d="M12.057 0H0.700001C0.514349 0 0.3363 0.0737493 0.205025 0.205025C0.0737493 0.3363 0 0.514349 0 0.700001V12.057C0 12.2427 0.0737493 12.4207 0.205025 12.552C0.3363 12.6833 0.514349 12.757 0.700001 12.757H6.376V7.748H4.855V5.925H6.38V4.472C6.36156 4.12647 6.4173 3.78099 6.54349 3.45879C6.66968 3.13659 6.86339 2.84515 7.1116 2.60405C7.3598 2.36295 7.65675 2.17778 7.98247 2.061C8.3082 1.94422 8.65515 1.89853 9 1.927C9.7 1.927 10.462 1.98 10.638 2.003V3.724H9.462C8.662 3.724 8.508 4.103 8.508 4.661V5.924H10.417L10.168 7.747H8.508V12.761H12.057C12.2427 12.761 12.4207 12.6872 12.552 12.556C12.6833 12.4247 12.757 12.2467 12.757 12.061V0.700001C12.757 0.514349 12.6833 0.3363 12.552 0.205025C12.4207 0.0737493 12.2427 0 12.057 0Z" fill="black"/>
</svg>
