<svg width="16" height="16" viewBox="0 0 16 16" fill="none" xmlns="http://www.w3.org/2000/svg">
<path d="M3.54593 9.66904L2.989 11.7482L0.953406 11.7912C0.345062 10.6629 0 9.37192 0 8.00005C0 6.67345 0.322625 5.42245 0.894499 4.32092H0.894937L2.70719 4.65317L3.50106 6.45455C3.3349 6.93895 3.24434 7.45895 3.24434 8.00005C3.2444 8.58729 3.35078 9.14995 3.54593 9.66904Z" fill="#FBBB00"/>
<path d="M15.8603 6.50549C15.9522 6.98943 16.0001 7.48921 16.0001 7.99999C16.0001 8.57274 15.9399 9.13143 15.8251 9.67033C15.4357 11.5042 14.4181 13.1055 13.0085 14.2387L13.008 14.2382L10.7254 14.1218L10.4023 12.1051C11.3377 11.5565 12.0687 10.698 12.4538 9.67033H8.17596V6.50549H12.5162H15.8603Z" fill="#518EF8"/>
<path d="M13.008 14.2383L13.0084 14.2387C11.6375 15.3407 9.89589 16 8.00008 16C4.95349 16 2.30471 14.2972 0.953491 11.7913L3.54602 9.66907C4.22161 11.4721 5.96096 12.7557 8.00008 12.7557C8.87655 12.7557 9.69767 12.5187 10.4023 12.1051L13.008 14.2383Z" fill="#28B446"/>
<path d="M13.1114 1.84175L10.5197 3.9635C9.79053 3.50768 8.92853 3.24437 8.00503 3.24437C5.91975 3.24437 4.14788 4.58678 3.50613 6.4545L0.899974 4.32087H0.899536C2.23097 1.75384 4.91316 0 8.00503 0C9.94612 0 11.7259 0.691437 13.1114 1.84175Z" fill="#F14336"/>
</svg>
